<svg width="420" height="140" viewBox="115 160 290 5" fill="none" xmlns="http://www.w3.org/2000/svg">
<g clip-path="url(#clip0_0_1)">
<path d="M114.012 167.446L155.459 126L161.115 131.657L119.669 173.103L114.012 167.446Z" fill="black"/>
<path d="M119.985 161.51L161.504 203.029L155.519 209.014L114 167.495L119.985 161.51Z" fill="black"/>
<path d="M149.551 202.992L191 161.544L196.973 167.517L155.525 208.965L149.551 202.992Z" fill="black"/>
<path d="M148.534 184.015L164.308 168.241L171.317 175.25L155.542 191.024L148.534 184.015Z" fill="black"/>
<path d="M131.547 167.041L141.043 157.545L155.012 171.514L145.516 181.01L131.547 167.041Z" fill="black"/>
<path d="M148.534 184.007L154.518 178.022L151.505 175.009L145.521 180.993L148.534 184.007Z" fill="black"/>
<path d="M164.006 134.528L196.992 167.514L189.03 175.476L156.044 142.49L164.006 134.528Z" fill="black"/>
<path d="M148.536 141.016L167.055 159.536L158.054 168.538L139.534 150.018L148.536 141.016Z" fill="black"/>
<path d="M166.895 159.387L176.993 169.485L170.993 175.486L160.895 165.387L166.895 159.387Z" fill="black"/>
<path d="M229.188 130.091V181H218.425V130.091H229.188Z" fill="black"/>
<path d="M251.344 181V130.091H285.648V138.965H262.107V151.096H283.883V159.97H262.107V172.126H285.747V181H251.344Z" fill="black"/>
<path d="M307.505 181V130.091H341.809V138.965H318.269V151.096H340.044V159.97H318.269V172.126H341.909V181H307.505Z" fill="black"/>
<path d="M363.667 181V130.091H397.97V138.965H374.43V151.096H396.206V159.97H374.43V172.126H398.07V181H363.667Z" fill="black"/>
<path d="M225.744 193.182C225.668 192.534 225.357 192.031 224.811 191.673C224.266 191.315 223.597 191.136 222.804 191.136C222.224 191.136 221.717 191.23 221.283 191.418C220.852 191.605 220.516 191.863 220.273 192.191C220.034 192.519 219.915 192.892 219.915 193.31C219.915 193.659 219.998 193.96 220.164 194.211C220.335 194.458 220.552 194.665 220.816 194.831C221.08 194.993 221.357 195.127 221.647 195.234C221.937 195.336 222.203 195.419 222.446 195.483L223.776 195.841C224.116 195.93 224.496 196.054 224.913 196.212C225.335 196.369 225.738 196.585 226.121 196.857C226.509 197.126 226.829 197.471 227.08 197.893C227.332 198.315 227.457 198.832 227.457 199.446C227.457 200.153 227.272 200.793 226.901 201.364C226.535 201.935 225.998 202.388 225.29 202.725C224.587 203.062 223.733 203.23 222.727 203.23C221.79 203.23 220.978 203.079 220.292 202.776C219.61 202.474 219.073 202.052 218.681 201.511C218.293 200.969 218.074 200.341 218.023 199.625H219.659C219.702 200.119 219.868 200.528 220.158 200.852C220.452 201.172 220.822 201.411 221.27 201.568C221.722 201.722 222.207 201.798 222.727 201.798C223.332 201.798 223.876 201.7 224.357 201.504C224.839 201.304 225.22 201.027 225.501 200.673C225.783 200.315 225.923 199.898 225.923 199.42C225.923 198.986 225.802 198.632 225.559 198.359C225.316 198.087 224.996 197.865 224.6 197.695C224.204 197.524 223.776 197.375 223.315 197.247L221.705 196.787C220.682 196.493 219.872 196.073 219.276 195.528C218.679 194.982 218.381 194.268 218.381 193.386C218.381 192.653 218.579 192.014 218.975 191.469C219.376 190.919 219.913 190.493 220.586 190.19C221.263 189.884 222.02 189.73 222.855 189.73C223.699 189.73 224.449 189.881 225.105 190.184C225.761 190.482 226.281 190.891 226.665 191.411C227.053 191.931 227.257 192.521 227.278 193.182H225.744Z" fill="black"/>
<path d="M236.541 203H234.879L239.686 189.909H241.322L246.129 203H244.467L240.555 191.98H240.453L236.541 203ZM237.154 197.886H243.853V199.293H237.154V197.886Z" fill="black"/>
<path d="M254.108 203V189.909H255.693V195.739H262.673V189.909H264.258V203H262.673V197.145H255.693V203H254.108Z" fill="black"/>
<path d="M273.372 203V189.909H277.795C278.818 189.909 279.658 190.084 280.314 190.433C280.97 190.778 281.456 191.254 281.771 191.859C282.087 192.464 282.244 193.152 282.244 193.923C282.244 194.695 282.087 195.379 281.771 195.975C281.456 196.572 280.972 197.04 280.32 197.381C279.668 197.718 278.835 197.886 277.821 197.886H274.241V196.455H277.77C278.469 196.455 279.031 196.352 279.457 196.148C279.888 195.943 280.199 195.653 280.39 195.278C280.587 194.899 280.685 194.447 280.685 193.923C280.685 193.399 280.587 192.941 280.39 192.549C280.194 192.157 279.881 191.854 279.451 191.641C279.02 191.424 278.452 191.315 277.744 191.315H274.957V203H273.372ZM279.534 197.119L282.756 203H280.915L277.744 197.119H279.534Z" fill="black"/>
<path d="M294.865 203H290.826V189.909H295.044C296.314 189.909 297.401 190.171 298.304 190.695C299.208 191.215 299.9 191.963 300.382 192.939C300.863 193.911 301.104 195.074 301.104 196.429C301.104 197.793 300.861 198.967 300.375 199.951C299.89 200.931 299.182 201.685 298.253 202.214C297.324 202.738 296.195 203 294.865 203ZM292.411 201.594H294.763C295.846 201.594 296.743 201.385 297.454 200.967C298.166 200.55 298.696 199.955 299.046 199.184C299.395 198.413 299.57 197.494 299.57 196.429C299.57 195.372 299.397 194.462 299.052 193.7C298.707 192.933 298.191 192.344 297.505 191.935C296.819 191.522 295.965 191.315 294.942 191.315H292.411V201.594Z" fill="black"/>
<path d="M309.625 203H307.963L312.77 189.909H314.406L319.213 203H317.551L313.639 191.98H313.537L309.625 203ZM310.239 197.886H316.937V199.293H310.239V197.886Z" fill="black"/>
<path d="M324.731 189.909H326.546L330.177 196.02H330.331L333.961 189.909H335.777L331.046 197.605V203H329.461V197.605L324.731 189.909Z" fill="black"/>
<path d="M342.968 203H341.306L346.113 189.909H347.749L352.556 203H350.894L346.982 191.98H346.88L342.968 203ZM343.581 197.886H350.28V199.293H343.581V197.886Z" fill="black"/>
<path d="M378.697 193.182C378.62 192.534 378.309 192.031 377.763 191.673C377.218 191.315 376.549 191.136 375.756 191.136C375.177 191.136 374.67 191.23 374.235 191.418C373.804 191.605 373.468 191.863 373.225 192.191C372.986 192.519 372.867 192.892 372.867 193.31C372.867 193.659 372.95 193.96 373.116 194.211C373.287 194.458 373.504 194.665 373.768 194.831C374.032 194.993 374.309 195.127 374.599 195.234C374.889 195.336 375.155 195.419 375.398 195.483L376.728 195.841C377.069 195.93 377.448 196.054 377.866 196.212C378.287 196.369 378.69 196.585 379.074 196.857C379.461 197.126 379.781 197.471 380.032 197.893C380.284 198.315 380.41 198.832 380.41 199.446C380.41 200.153 380.224 200.793 379.853 201.364C379.487 201.935 378.95 202.388 378.243 202.725C377.54 203.062 376.685 203.23 375.679 203.23C374.742 203.23 373.93 203.079 373.244 202.776C372.562 202.474 372.025 202.052 371.633 201.511C371.246 200.969 371.026 200.341 370.975 199.625H372.611C372.654 200.119 372.82 200.528 373.11 200.852C373.404 201.172 373.775 201.411 374.222 201.568C374.674 201.722 375.16 201.798 375.679 201.798C376.285 201.798 376.828 201.7 377.309 201.504C377.791 201.304 378.172 201.027 378.454 200.673C378.735 200.315 378.875 199.898 378.875 199.42C378.875 198.986 378.754 198.632 378.511 198.359C378.268 198.087 377.949 197.865 377.552 197.695C377.156 197.524 376.728 197.375 376.268 197.247L374.657 196.787C373.634 196.493 372.824 196.073 372.228 195.528C371.631 194.982 371.333 194.268 371.333 193.386C371.333 192.653 371.531 192.014 371.927 191.469C372.328 190.919 372.865 190.493 373.538 190.19C374.216 189.884 374.972 189.73 375.807 189.73C376.651 189.73 377.401 189.881 378.057 190.184C378.714 190.482 379.233 190.891 379.617 191.411C380.005 191.931 380.209 192.521 380.231 193.182H378.697Z" fill="black"/>
<path d="M388.956 203V189.909H393.533C394.445 189.909 395.197 190.067 395.789 190.382C396.381 190.693 396.822 191.113 397.112 191.641C397.402 192.165 397.547 192.747 397.547 193.386C397.547 193.949 397.447 194.413 397.246 194.78C397.05 195.146 396.79 195.436 396.467 195.649C396.147 195.862 395.8 196.02 395.425 196.122V196.25C395.825 196.276 396.228 196.416 396.633 196.672C397.038 196.928 397.376 197.294 397.649 197.771C397.922 198.249 398.058 198.832 398.058 199.523C398.058 200.179 397.909 200.769 397.611 201.293C397.312 201.817 396.842 202.233 396.198 202.54C395.555 202.847 394.717 203 393.686 203H388.956ZM390.541 201.594H393.686C394.722 201.594 395.457 201.393 395.891 200.993C396.33 200.588 396.55 200.098 396.55 199.523C396.55 199.08 396.437 198.67 396.211 198.295C395.985 197.916 395.663 197.614 395.246 197.388C394.828 197.158 394.334 197.043 393.763 197.043H390.541V201.594ZM390.541 195.662H393.482C393.959 195.662 394.389 195.568 394.773 195.381C395.16 195.193 395.467 194.929 395.693 194.588C395.923 194.247 396.038 193.847 396.038 193.386C396.038 192.811 395.838 192.323 395.437 191.923C395.037 191.518 394.402 191.315 393.533 191.315H390.541V195.662Z" fill="black"/>
</g>
<defs>
<clipPath id="clip0_0_1">
<rect width="284.183" height="137.94" fill="white" transform="translate(114 128)"/>
</clipPath>
</defs>
</svg>
